<svg width="36" height="36" viewBox="0 0 36 36" fill="none" xmlns="http://www.w3.org/2000/svg">
<path fill-rule="evenodd" clip-rule="evenodd" d="M13.7253 6.2644C13.3245 5.91187 12.7243 5.91186 12.3235 6.26439L9.69388 8.57743C9.36626 8.86561 9.24841 9.32496 9.39685 9.73527L10.7379 13.4424H10.2683C9.68221 13.4424 9.20708 13.9175 9.20708 14.5036C9.20708 15.0897 9.68221 15.5648 10.2683 15.5648H13.8438V17.7176C13.8438 18.1582 14.116 18.5529 14.5278 18.7095L15.621 19.2236L20.0312 27.6336L17.8669 30.0596L12.7546 30.0186C12.1685 30.0186 11.8344 30.3527 11.8344 30.9388C11.8344 31.5249 12.3095 32 12.8956 32H18.1549C18.4587 32 18.748 31.8698 18.9494 31.6423L21.7738 28.4527C22.0655 28.1233 22.1236 27.648 21.92 27.258L17.026 17.8839C16.9058 17.6536 16.7053 17.4754 16.4625 17.3831L15.4177 16.9858V15.6511L15.5668 15.5648H16.4748C17.0609 15.5648 17.5361 15.0897 17.5361 14.5036C17.5361 13.9175 17.0609 13.4424 16.4748 13.4424H15.3109L16.652 9.73533C16.8004 9.32503 16.6826 8.86569 16.3549 8.5775L13.7253 6.2644ZM12.5156 13.4424H13.5032L14.8594 9.69345L13.0244 8.0625L11.1594 9.69339L12.5156 13.4424Z" fill="#991E66"/>
<path fill-rule="evenodd" clip-rule="evenodd" d="M11.684 13.978C12.2701 13.978 12.2815 14.4532 12.2815 15.0393V16.3784V17.7176C12.2815 18.1581 12.0093 18.5529 11.5975 18.7095L10.3652 19.2236L5.99591 27.5926L7.88566 30.0111H13.0113C13.5974 30.0111 14.2061 30.3527 14.2061 30.9388C14.2061 31.5249 13.731 32 13.1449 32H7.88566C7.58183 32 7.29257 31.8698 7.09115 31.6423L4.26673 28.4526C3.97505 28.1232 3.91688 27.648 4.12051 27.258L9.01453 17.8838C9.13475 17.6536 9.33525 17.4754 9.57806 17.3831L10.6228 16.9858V15.0393C10.6228 14.4532 11.0979 13.978 11.684 13.978Z" fill="#991E66"/>
<path fill-rule="evenodd" clip-rule="evenodd" d="M10.2988 21.5991L6.88918 30.5707L8.5625 31.3248L11.9468 22.42H14.0267L17.2388 31.3084L19.0166 30.5871L15.7702 21.6036L17.2388 20.0076L15.677 19.054L14.0877 20.7811H11.9871L10.3728 19.0491L8.82014 20.0126L10.2988 21.5991Z" fill="#991E66"/>
<path fill-rule="evenodd" clip-rule="evenodd" d="M20.6213 15.3516C20.9489 15.3516 21.2115 15.1759 21.3401 15.043C21.4686 14.9101 21.5979 14.7427 21.5979 14.4953C21.5979 14.248 21.518 14.0216 21.3401 13.8438C21.1838 13.6875 20.7028 13.5586 20.3752 13.5586C19.9448 13.5586 18.7307 14.1133 18.4763 14.468C18.4763 14.468 19.4026 15.418 20.6213 15.3516ZM20.6464 17.1749C18.9463 17.1749 16.331 16.0152 15.6241 14.4974C16.331 13.0136 18.9463 11.8198 20.6464 11.8198C22.3464 11.8198 23.3711 13.0186 23.3711 14.4974C23.3711 15.9761 22.3464 17.1749 20.6464 17.1749Z" fill="#991E66"/>
</svg>
