<svg width="37" height="36" viewBox="0 0 37 36" fill="none" xmlns="http://www.w3.org/2000/svg">
<path d="M9.00531 20.8428C8.83156 22.1704 8.72732 23.6727 6.53813 24.1968C4.34894 24.7209 2.1945 24.6161 1.55599 26.6643C0.995657 28.4636 1 29.669 1 29.669" stroke="#9F1A6E" stroke-width="1.5" stroke-miterlimit="10" stroke-linecap="round" stroke-linejoin="round"/>
<path d="M15.0127 20.8428C15.1864 22.1704 15.2907 23.6727 17.4799 24.1968C19.6691 24.7209 21.8235 24.6161 22.462 26.6643C23.0223 28.4636 23.0875 29.669 23.0875 29.669" stroke="#9F1A6E" stroke-width="1.5" stroke-miterlimit="10" stroke-linecap="round" stroke-linejoin="round"/>
<path d="M7.44141 13.6675C7.44141 14.9777 7.44141 16.6721 7.44141 17.7377C7.44141 18.8034 8.78793 21.8779 11.9675 21.8779C15.147 21.8779 16.4935 19.0829 16.4935 17.7377C16.4935 16.3926 16.4935 14.2964 16.4935 14.2964" stroke="#9F1A6E" stroke-width="1.5" stroke-miterlimit="10" stroke-linecap="round" stroke-linejoin="round"/>
<path d="M8.09766 23.4021C8.09766 23.4021 9.58318 25.8914 11.9678 25.8914C14.409 25.8914 15.8684 23.4021 15.8684 23.4021" stroke="#9F1A6E" stroke-width="1.5" stroke-miterlimit="10" stroke-linecap="round" stroke-linejoin="round"/>
<path d="M13.3492 11.9032C13.3492 11.9032 11.16 13.6676 8.27581 13.6676C5.39164 13.6676 5.27002 11.3442 5.27002 10.8027C5.27002 9.49249 5.80863 7.58838 5.80863 7.58838C5.80863 7.58838 6.7816 8.40068 7.84145 8.42689C9.28353 8.46183 10.1175 7.78054 11.9679 7.78054C13.8183 7.78054 16.0813 8.45746 16.8936 10.5581C17.5408 12.2308 16.4896 14.2921 16.4896 14.2921C16.4896 14.2921 14.1831 13.6676 13.3492 11.9032Z" stroke="#9F1A6E" stroke-width="1.5" stroke-miterlimit="10" stroke-linecap="round" stroke-linejoin="round"/>
<path d="M7.4418 14.2964C6.36458 14.2964 6.01709 15.3969 6.01709 16.0607C6.01709 16.9691 6.26033 17.9998 7.4418 17.9998" stroke="#9F1A6E" stroke-width="1.5" stroke-miterlimit="10" stroke-linecap="round" stroke-linejoin="round"/>
<path d="M16.6108 14.2964C17.6881 14.2964 18.0356 15.3969 18.0356 16.0607C18.0356 16.9691 17.7923 17.9998 16.6108 17.9998" stroke="#9F1A6E" stroke-width="1.5" stroke-miterlimit="10" stroke-linecap="round" stroke-linejoin="round"/>
</svg>
