<svg width="37" height="36" viewBox="0 0 37 36" fill="none" xmlns="http://www.w3.org/2000/svg">
<path d="M9.42185 20.5435C9.46106 22.3764 9.80526 24.1393 7.81418 24.7181C5.45277 25.4066 2.84737 25.7311 1.93679 26.5029C0.973928 27.3229 1.00007 28.8928 1.00007 28.8928" stroke="#9F1A6E" stroke-width="1.5" stroke-miterlimit="10" stroke-linecap="round" stroke-linejoin="round"/>
<path d="M13.1512 20.5435C13.112 22.3764 12.7678 24.1393 14.7589 24.7181C17.1203 25.4066 19.6473 25.8407 20.6363 26.5029C21.5774 27.1343 21.573 28.8928 21.573 28.8928" stroke="#9F1A6E" stroke-width="1.5" stroke-miterlimit="10" stroke-linecap="round" stroke-linejoin="round"/>
<path d="M1.94141 26.5073L11.3173 28.1474L20.6323 26.5073" stroke="#9F1A6E" stroke-width="1.5" stroke-miterlimit="10" stroke-linecap="round" stroke-linejoin="round"/>
<path d="M6.9165 16.6582C7.61796 19.2323 9.83559 21.1662 11.269 21.1662C12.7634 21.1662 15.1814 19.4121 15.7043 16.3337" stroke="#9F1A6E" stroke-width="1.5" stroke-miterlimit="10" stroke-linecap="round" stroke-linejoin="round"/>
<path d="M8.22352 10.576C7.62228 12.58 6.67684 16.5442 6.83805 18.7499C6.99925 20.9556 8.70278 22.9333 8.70278 22.9333C8.70278 22.9333 3.43971 22.4948 3.18701 17.1405C2.96917 12.5668 5.84033 8.7123 7.52643 7.27398C9.46958 5.61639 13.125 5.76987 14.9592 7.27398C16.8719 8.84386 19.1941 13.0141 19.4206 17.0704C19.7212 22.4772 13.9528 22.9377 13.9528 22.9377C13.9528 22.9377 16.4928 21.1705 15.7042 16.3337C15.7042 16.3337 13.2731 16.5749 11.3038 14.5708C9.33452 12.5668 8.22352 10.576 8.22352 10.576Z" stroke="#9F1A6E" stroke-width="1.5" stroke-miterlimit="10" stroke-linecap="round" stroke-linejoin="round"/>
</svg>
