<svg width="36" height="36" viewBox="0 0 36 36" fill="none" xmlns="http://www.w3.org/2000/svg">
<g clip-path="url(#clip0_227_2732)">
<path d="M18.5876 19.9426C18.5876 19.9426 19.8179 19.2591 20.638 18.439C21.4582 17.6188 21.1848 16.9354 21.1848 16.7987C21.1848 16.662 20.638 8.87054 20.3646 7.64031C20.0912 6.41008 18.7243 6 18.7243 6H0.954332C0.954332 6 1.15937 7.43527 1.70614 8.25542L2.25291 9.07558C2.25291 9.07558 1.84283 11.536 1.56945 12.7663C1.29606 13.9965 0.885986 20.6944 0.885986 21.5146V24.5218C0.885986 24.6585 0.885986 26.0254 1.84283 26.1621C2.79968 26.2988 13.1883 26.7089 17.4941 26.0938C17.9493 26.0281 18.2459 25.752 18.3826 24.7952C18.5193 23.8383 18.1092 16.3203 17.9725 14.9533C17.8358 13.5864 17.4257 9.75904 17.0157 8.6655C16.6056 7.57196 16.1955 6.34173 16.1955 6.34173" stroke="#9F1A6E" stroke-width="1.3" stroke-miterlimit="10"/>
<path d="M8.54077 9.62235V22.3347C8.54077 22.3347 8.81552 23.1029 9.49762 23.1549C10.3861 23.2232 10.5912 22.3347 10.5912 22.3347V9.62235C10.5912 9.62235 10.3178 8.52881 9.49762 8.52881C8.67746 8.52881 8.54077 9.62235 8.54077 9.62235Z" stroke="#9F1A6E" stroke-width="1.3" stroke-miterlimit="10"/>
<path d="M18.1092 22.3347H10.5228" stroke="#9F1A6E" stroke-width="1.3" stroke-miterlimit="10"/>
<path d="M8.4724 22.3347H1.15936" stroke="#9F1A6E" stroke-width="1.3" stroke-miterlimit="10"/>
<path d="M0 30.1399L19.7866 30.2165C19.7866 30.2165 19.5574 28.6086 18.4115 28.2258C18.3091 28.1921 1.37513 28.1492 1.37513 28.1492C1.37513 28.1492 0.152792 28.3023 0 30.1399Z" stroke="#9F1A6E" stroke-width="1.3" stroke-miterlimit="10"/>
</g>
<defs>
<clipPath id="clip0_227_2732">
<rect width="36" height="36" fill="white"/>
</clipPath>
</defs>
</svg>
