<svg width="37" height="36" viewBox="0 0 37 36" fill="none" xmlns="http://www.w3.org/2000/svg">
<path d="M12.9713 28.9879C18.5997 28.9879 23.1624 24.4187 23.1624 18.7822C23.1624 13.1457 18.5997 8.57642 12.9713 8.57642C7.34296 8.57642 2.78027 13.1457 2.78027 18.7822C2.78027 24.4187 7.34296 28.9879 12.9713 28.9879Z" stroke="#9F1A6E" stroke-width="1.5" stroke-miterlimit="10" stroke-linecap="round" stroke-linejoin="round"/>
<path d="M2.90216 17.1995C0.450269 17.1995 0.090038 21.639 3.48318 22.506" stroke="#9F1A6E" stroke-width="1.5" stroke-miterlimit="10" stroke-linecap="round" stroke-linejoin="round"/>
<path d="M23.0922 17.1995C25.5441 17.1995 25.9044 21.639 22.5112 22.506" stroke="#9F1A6E" stroke-width="1.5" stroke-miterlimit="10" stroke-linecap="round" stroke-linejoin="round"/>
<path d="M9.05515 18.3219C9.69372 18.3219 10.2114 17.8035 10.2114 17.164C10.2114 16.5245 9.69372 16.0061 9.05515 16.0061C8.41659 16.0061 7.89893 16.5245 7.89893 17.164C7.89893 17.8035 8.41659 18.3219 9.05515 18.3219Z" stroke="#9F1A6E" stroke-width="1.5" stroke-miterlimit="10" stroke-linecap="round" stroke-linejoin="round"/>
<path d="M16.8813 18.3219C17.5199 18.3219 18.0375 17.8035 18.0375 17.164C18.0375 16.5245 17.5199 16.0061 16.8813 16.0061C16.2428 16.0061 15.7251 16.5245 15.7251 17.164C15.7251 17.8035 16.2428 18.3219 16.8813 18.3219Z" stroke="#9F1A6E" stroke-width="1.5" stroke-miterlimit="10" stroke-linecap="round" stroke-linejoin="round"/>
<path d="M9.729 21.7898C9.729 21.7898 10.31 24.1114 12.9711 24.1114C15.6321 24.1114 16.5153 21.7898 16.5153 21.7898" stroke="#9F1A6E" stroke-width="1.5" stroke-miterlimit="10" stroke-linecap="round" stroke-linejoin="round"/>
<path d="M11.8493 11.1446C12.0817 10.4929 11.5239 10.1496 10.9545 10.1496C10.4606 10.1496 9.73438 10.522 9.73438 11.5636C9.73438 12.6051 10.6175 13.2451 11.5239 13.2451C12.4419 13.2451 13.3134 12.6458 13.3134 11.1912C13.3134 9.94017 13.3134 8.84628 13.3134 8.84628" stroke="#9F1A6E" stroke-width="1.5" stroke-miterlimit="10" stroke-linecap="round" stroke-linejoin="round"/>
</svg>
