<svg width="37" height="36" viewBox="0 0 37 36" fill="none" xmlns="http://www.w3.org/2000/svg">
<path d="M24.8711 16.5431C24.6702 16.3413 24.3425 16.3404 24.1399 16.5409C23.9375 16.7417 23.9363 17.0681 24.1372 17.2699L25.2303 18.3665C25.9935 19.1324 25.9895 20.3748 25.221 21.1367L17.4461 28.8421C16.6776 29.604 15.4316 29.6003 14.6679 28.8345L4.17625 18.3086C3.41304 17.5427 3.41704 16.2999 4.18557 15.5384L5.65286 14.0844C6.61292 13.1327 5.36156 10.7516 4.95494 10.0446C4.84433 9.8517 4.6223 9.75114 4.40327 9.7962C3.82174 9.91401 3.22792 9.73627 2.81263 9.31909C2.4837 8.98915 2.30322 8.55099 2.30491 8.08527C2.3066 7.61954 2.48965 7.18273 2.82074 6.85454C3.50444 6.17728 4.61315 6.17985 5.29235 6.86115C5.70806 7.27828 5.88302 7.87206 5.76115 8.45013C5.71445 8.6697 5.81581 8.89385 6.01146 9.0046C6.92387 9.52081 9.144 10.6247 10.0539 9.72252L11.9612 7.83248C12.7297 7.07058 13.9758 7.07427 14.7394 7.84011L20.0581 13.1763C20.259 13.3782 20.5867 13.3791 20.7893 13.1786C20.9917 12.9777 20.9929 12.6514 20.792 12.4495L15.4733 7.1133C14.3079 5.94464 12.406 5.93877 11.2332 7.10151L9.32589 8.99155C9.14002 9.1762 7.99626 8.87919 6.82757 8.27301C6.88132 7.48269 6.59541 6.70473 6.02663 6.1343C4.94482 5.04985 3.1802 5.0451 2.09232 6.12361C1.56512 6.6458 1.27335 7.34177 1.27101 8.08242C1.26871 8.82347 1.55539 9.52052 2.07917 10.0459C2.64889 10.6174 3.42813 10.9074 4.2229 10.8575C4.80036 11.9576 5.14202 13.1378 4.92445 13.3535L3.45716 14.8074C2.28441 15.9698 2.27783 17.8666 3.4428 19.0353L13.9345 29.5616C14.5984 30.2275 15.5014 30.5159 16.3722 30.4257C17.03 30.3577 17.67 30.0738 18.1745 29.5734L25.9498 21.868C27.1226 20.7056 27.1292 18.8088 25.9642 17.6401L24.8711 16.5431Z" fill="#991E66" stroke="#991E66" stroke-width="0.8"/>
<path d="M29.885 13.263C29.7864 13.1099 29.6137 13.02 29.431 13.0264C29.3975 13.0278 25.6572 13.1687 23.7397 13.4297L22.7573 13.5629C19.9875 13.9375 13.5012 14.8148 11.9441 15.0879C9.08605 15.5893 6.31749 16.2569 6.28949 16.2635C6.08871 16.312 5.93598 16.4754 5.90128 16.6784C5.86662 16.8818 5.95677 17.086 6.13044 17.1974C6.21996 17.2548 8.35221 18.6103 11.1768 18.9502C13.3711 19.2143 16.9316 18.8989 18.3607 18.751C18.7663 18.709 19.0073 18.6799 19.0073 18.6799C19.2697 18.6482 19.4662 18.4218 19.4622 18.1581C19.4621 18.1449 19.4538 16.8391 20.4069 16.3669C20.4793 16.3312 20.7206 16.2403 21.4006 16.17C23.7092 15.931 28.2903 16.1977 28.3363 16.2004C28.5434 16.2125 28.736 16.101 28.8292 15.9172L29.9111 13.7727C29.9937 13.6103 29.9836 13.4161 29.885 13.263ZM11.3021 17.9269C9.93462 17.7625 8.72709 17.3274 7.89134 16.9533C8.95856 16.7156 10.527 16.3833 12.1228 16.1033C13.1049 15.9308 16.1016 15.5116 18.859 15.1334C18.862 15.5518 18.8274 16.19 18.6564 16.9324C18.6036 17.2372 18.5535 17.416 18.4635 17.7039C17.2333 17.8366 13.5053 18.1922 11.3021 17.9269ZM28.0583 15.153C26.9334 15.0945 23.3382 14.9334 21.2949 15.1449C20.654 15.2112 20.226 15.3061 19.948 15.4439C19.9271 15.4544 19.9083 15.4663 19.8882 15.4766C19.8949 15.2927 19.8944 15.1307 19.8909 14.9922C21.0564 14.833 22.1217 14.6891 22.8955 14.5846L23.8783 14.4514C25.1912 14.2736 27.3776 14.1522 28.592 14.0945L28.0583 15.153Z" fill="#991E66" stroke="#991E66" stroke-width="0.8"/>
</svg>
