<svg width="36" height="36" viewBox="0 0 36 36" fill="none" xmlns="http://www.w3.org/2000/svg">
    <g clip-path="url(#clip0_6341_167936)">
        <path fill-rule="evenodd" clip-rule="evenodd"
            d="M10.2025 29.3375L22.8349 22.0441C22.9041 22.0042 22.9637 21.9496 23.0097 21.8843L27.7516 15.1431C27.8748 14.968 27.8851 14.7373 27.778 14.5518L25.073 9.86662C24.966 9.68118 24.761 9.57476 24.5477 9.59388L16.3388 10.3299C16.2592 10.337 16.1821 10.3614 16.1129 10.4014L3.48053 17.6947C3.21753 17.8465 3.12743 18.1828 3.27927 18.4458L9.45135 29.1362C9.60319 29.3992 9.93948 29.4893 10.2025 29.3375ZM16.1423 8.13921C15.7445 8.17489 15.3591 8.29684 15.0132 8.49657L2.38079 15.7899C1.06579 16.5491 0.615245 18.2306 1.37446 19.5456L7.54654 30.2359C8.30575 31.5509 9.98723 32.0015 11.3022 31.2423L23.9346 23.9489C24.2806 23.7492 24.5788 23.4765 24.8087 23.1498L29.5506 16.4086C30.1666 15.5329 30.2182 14.3793 29.6829 13.4521L26.9778 8.76688C26.4425 7.83969 25.4177 7.30757 24.3513 7.40318L16.1423 8.13921Z"
            fill="#991E66" />
        <path
            d="M24.1572 14.5719C24.7958 14.5719 25.3134 14.0535 25.3134 13.414C25.3134 12.7745 24.7958 12.2561 24.1572 12.2561C23.5186 12.2561 23.001 12.7745 23.001 13.414C23.001 14.0535 23.5186 14.5719 24.1572 14.5719Z"
            stroke="#9F1A6E" stroke-width="1.5" stroke-miterlimit="10" stroke-linecap="round" stroke-linejoin="round" />
        <path
            d="M8.67657 20.5729C7.95909 20.2823 7.46092 19.7515 7.18206 18.9805C6.89989 18.2003 6.94657 17.4828 7.32212 16.828C7.69435 16.1641 8.30726 15.6777 9.16087 15.369C10.0145 15.0602 10.7967 15.042 11.5075 15.3142C12.2151 15.5773 12.7099 16.0989 12.9921 16.8791C13.2709 17.6501 13.2276 18.3768 12.862 19.0591C12.4898 19.7231 11.8768 20.2094 11.0232 20.5181C10.1696 20.8269 9.38741 20.8451 8.67657 20.5729ZM9.10956 18.2833C9.21579 18.5771 9.39057 18.7733 9.63389 18.8721C9.87722 18.971 10.1411 18.9689 10.4257 18.866C10.7286 18.7565 10.9373 18.5875 11.052 18.3592C11.1666 18.131 11.1708 17.87 11.0646 17.5762C10.965 17.3009 10.7935 17.1138 10.5502 17.015C10.3161 16.9128 10.0521 16.9149 9.75842 17.0211C9.4647 17.1274 9.25594 17.2963 9.13212 17.5279C9.01749 17.7562 9.00996 18.008 9.10956 18.2833ZM16.7939 23.0861C16.0764 22.7955 15.5783 22.2647 15.2994 21.4937C15.0172 20.7135 15.0639 19.996 15.4395 19.3412C15.8025 18.6806 16.4154 18.1942 17.2782 17.8822C18.141 17.5701 18.9232 17.5519 19.6249 17.8274C20.3324 18.0905 20.8273 18.6121 21.1094 19.3923C21.3883 20.1633 21.3449 20.8899 20.9793 21.5723C20.6163 22.2329 20.0034 22.7193 19.1406 23.0313C18.2778 23.3434 17.4956 23.3616 16.7939 23.0861ZM17.2269 20.7965C17.3331 21.0902 17.5079 21.2865 17.7512 21.3853C17.9946 21.4841 18.2585 21.4821 18.543 21.3792C18.8459 21.2696 19.0547 21.1007 19.1693 20.8724C19.284 20.6441 19.2882 20.3831 19.1819 20.0894C19.0823 19.8141 18.9109 19.627 18.6676 19.5282C18.4334 19.426 18.1695 19.4281 17.8758 19.5343C17.5821 19.6405 17.3733 19.8095 17.2495 20.0411C17.1348 20.2694 17.1273 20.5212 17.2269 20.7965ZM13.1103 25.2124L11.6325 24.8283L15.1636 13.1979L16.6338 13.647L13.1103 25.2124Z"
            fill="#991E66" stroke="#991E66" stroke-width="0.2" />
    </g>
    <defs>
        <clipPath id="clip0_6341_167936">
            <rect width="36" height="36" fill="white" />
        </clipPath>
    </defs>
</svg>