<svg width="36" height="36" viewBox="0 0 36 36" fill="none" xmlns="http://www.w3.org/2000/svg">
<path d="M9.46324 17.8064L10.9847 23.4847L10.1898 23.6978L6.0125 20.6003L7.06669 24.5346L6.13381 24.7846L4.6123 19.1062L5.40727 18.8932L9.5889 22.0069L8.53037 18.0564L9.46324 17.8064Z" fill="#9F1A6E"/>
<path d="M15.9248 22.1611L12.5584 23.0631L11.0369 17.3847L14.3222 16.5044L14.5722 17.4373L12.2846 18.0503L12.6628 19.4617L14.707 18.914L14.957 19.8469L12.9128 20.3946L13.3062 21.8629L15.6749 21.2282L15.9248 22.1611Z" fill="#9F1A6E"/>
<path d="M21.9085 14.4717L22.8657 14.2152L22.7648 20.3283L21.8319 20.5783L19.3612 16.841L19.1144 21.3064L18.1734 21.5585L14.9565 16.3345L16.076 16.0345L18.3044 19.7759L18.4852 15.389L19.4749 15.1238L21.8596 18.832L21.9085 14.4717Z" fill="#9F1A6E"/>
<path d="M9.46324 17.8064L10.9847 23.4847L10.1898 23.6978L6.0125 20.6003L7.06669 24.5346L6.13381 24.7846L4.6123 19.1062L5.40727 18.8932L9.5889 22.0069L8.53037 18.0564L9.46324 17.8064Z" stroke="#991E66" stroke-width="0.5"/>
<path d="M15.9248 22.1611L12.5584 23.0631L11.0369 17.3847L14.3222 16.5044L14.5722 17.4373L12.2846 18.0503L12.6628 19.4617L14.707 18.914L14.957 19.8469L12.9128 20.3946L13.3062 21.8629L15.6749 21.2282L15.9248 22.1611Z" stroke="#991E66" stroke-width="0.5"/>
<path d="M21.9085 14.4717L22.8657 14.2152L22.7648 20.3283L21.8319 20.5783L19.3612 16.841L19.1144 21.3064L18.1734 21.5585L14.9565 16.3345L16.076 16.0345L18.3044 19.7759L18.4852 15.389L19.4749 15.1238L21.8596 18.832L21.9085 14.4717Z" stroke="#991E66" stroke-width="0.5"/>
<path d="M13.3947 6.46021C13.7524 6.18825 14.2476 6.18825 14.6053 6.46021L16.8168 8.14172C17.0124 8.29045 17.2559 8.36195 17.5008 8.34259L20.2703 8.12363C20.7183 8.08822 21.1348 8.35592 21.2887 8.77809L22.24 11.3883C22.3242 11.6192 22.4904 11.811 22.7069 11.9271L25.1552 13.2402C25.5511 13.4526 25.7568 13.903 25.658 14.3413L25.0472 17.0515C24.9931 17.2912 25.0292 17.5424 25.1486 17.7572L26.4983 20.1855C26.7166 20.5782 26.6461 21.0684 26.326 21.3837L24.3469 23.3334C24.1718 23.5058 24.0664 23.7367 24.0507 23.9819L23.8733 26.7544C23.8446 27.2028 23.5203 27.577 23.0806 27.6692L20.3616 28.2394C20.1211 28.2898 19.9076 28.4271 19.7618 28.6249L18.1136 30.8613C17.847 31.223 17.3719 31.3625 16.9521 31.2024L14.3565 30.212C14.1269 30.1244 13.8731 30.1244 13.6435 30.212L11.0479 31.2024C10.6281 31.3625 10.153 31.223 9.88639 30.8613L8.23822 28.6249C8.09244 28.4271 7.87893 28.2898 7.63844 28.2394L4.91942 27.6692C4.47965 27.577 4.15539 27.2028 4.1267 26.7544L3.94928 23.9819C3.93359 23.7367 3.82816 23.5058 3.65311 23.3334L1.67399 21.3837C1.35389 21.0684 1.28342 20.5782 1.50171 20.1855L2.85138 17.7572C2.97075 17.5424 3.00687 17.2912 2.95284 17.0515L2.34197 14.3413C2.24317 13.903 2.44887 13.4526 2.84484 13.2402L5.29308 11.9271C5.50963 11.811 5.67583 11.6192 5.75997 11.3883L6.7113 8.77809C6.86517 8.35592 7.28172 8.08822 7.72966 8.12363L10.4992 8.34259C10.7441 8.36195 10.9876 8.29045 11.1832 8.14172L13.3947 6.46021Z" stroke="#991E66" stroke-width="2"/>
</svg>
