<svg width="22" height="22" viewBox="0 0 22 22" fill="none" xmlns="http://www.w3.org/2000/svg">
<path d="M5.76878 3.99101C8.66425 1.09553 13.3356 1.09553 16.2311 3.99101C19.113 6.87298 19.113 11.5714 16.2311 14.4534L16.2241 14.4604L16.217 14.4674L16.2099 14.4745L16.2028 14.4816L16.1956 14.4888L16.1884 14.496L16.1812 14.5032L16.174 14.5105L16.1666 14.5178L16.1594 14.5251L16.152 14.5324L16.1446 14.5398L16.1372 14.5473L16.1297 14.5547L16.1222 14.5622L16.1147 14.5697L16.1072 14.5773L16.0996 14.5848L16.092 14.5924L16.0844 14.6001L16.0766 14.6078L16.069 14.6155L16.0612 14.6232L16.0534 14.631L16.0457 14.6388L16.0378 14.6466L16.03 14.6544L16.0221 14.6624L16.0142 14.6702L16.0062 14.6782L15.9982 14.6862L15.9903 14.6942L15.9822 14.7022L15.9742 14.7103L15.966 14.7184L15.958 14.7265L15.9498 14.7346L15.9416 14.7428L15.9334 14.751L15.9252 14.7593L15.9169 14.7676L15.9086 14.7758L15.9002 14.7842L15.8919 14.7926L15.8835 14.8009L15.8751 14.8093L15.8667 14.8178L15.8583 14.8262L15.8497 14.8347L15.8412 14.8432L15.8326 14.8518L15.8241 14.8604L15.8155 14.869L15.8068 14.8776L15.7982 14.8862L15.7895 14.8949L15.7808 14.9036L15.7721 14.9124L15.7633 14.9212L15.7545 14.9299L15.7457 14.9388L15.7369 14.9476L15.728 14.9564L15.7191 14.9654L15.7102 14.9742L15.7012 14.9832L15.6923 14.9922L15.6833 15.0012L15.6743 15.0102L15.6652 15.0192L15.6562 15.0283L15.6471 15.0374L15.638 15.0465L15.6288 15.0556L15.6196 15.0648L15.6104 15.074L15.6012 15.0832L15.592 15.0924L15.5827 15.1017L15.5734 15.111L15.5642 15.1203L15.5548 15.1296L15.5454 15.139L15.536 15.1484L15.5266 15.1578L15.5172 15.1672L15.5078 15.1767L15.4983 15.1862L15.4888 15.1956L15.4793 15.2052L15.4698 15.2147L15.4602 15.2242L15.4506 15.2338L15.441 15.2434L15.4314 15.2531L15.4217 15.2627L15.412 15.2724L15.4024 15.2821L15.3926 15.2918L15.3829 15.3016L15.3732 15.3113L15.3634 15.3211L15.3536 15.3309L15.3438 15.3407L15.3339 15.3506L15.324 15.3604L15.3142 15.3703L15.3042 15.3802L15.2943 15.3901L15.2844 15.4001L15.2745 15.41L15.2644 15.42L15.2544 15.43L15.2444 15.44L15.2344 15.4501L15.2243 15.4602L15.2142 15.4702L15.2041 15.4803L15.194 15.4904L15.1838 15.5006L15.1737 15.5108L15.1635 15.5209L15.1534 15.5311L15.1431 15.5413L15.1329 15.5516L15.1226 15.5618L15.1124 15.5721L15.1021 15.5824L15.0918 15.5926L15.0815 15.603L15.0711 15.6133L15.0608 15.6237L15.0504 15.634L15.04 15.6444L15.0296 15.6548L15.0192 15.6652L15.0088 15.6757L14.9983 15.6862L14.9878 15.6966L14.9773 15.7071L14.9668 15.7176L14.9563 15.7282L14.9458 15.7387L14.9352 15.7492L14.9246 15.7598L14.914 15.7704L14.9034 15.781L14.8928 15.7916L14.8822 15.8022L14.8716 15.8129L14.8609 15.8236L14.8502 15.8342L14.8395 15.8449L14.8288 15.8556L14.8181 15.8664L14.8074 15.8771L14.7966 15.8878L14.7858 15.8986L14.775 15.9094L14.7642 15.9202L14.7534 15.931L14.7426 15.9418L14.7319 15.9526L14.721 15.9635L14.7101 15.9744L14.6992 15.9852L14.6884 15.9961L14.6774 16.007L14.6665 16.0179L14.6556 16.0288L14.6446 16.0398L14.6337 16.0508L14.6228 16.0617L14.6118 16.0727L14.6008 16.0836L14.5898 16.0946L14.5788 16.1057L14.5678 16.1167L14.5567 16.1277L14.5457 16.1388L14.5346 16.1498L14.5236 16.1609L14.5124 16.172L14.5014 16.1831L14.4903 16.1942L14.4792 16.2053L14.468 16.2164L14.4569 16.2276L14.4458 16.2387L14.4346 16.2498L14.4234 16.261L14.4123 16.2722L14.4011 16.2834L14.3899 16.2946L14.3787 16.3058L14.3675 16.317L14.3562 16.3282L14.345 16.3394L14.3338 16.3507L14.3225 16.3619L14.3112 16.3732L14.3 16.3844L14.2887 16.3957L14.2774 16.407L14.2662 16.4183L14.2548 16.4296L14.2435 16.4409L14.2322 16.4522L14.2209 16.4636L14.2096 16.4749L14.1982 16.4862L14.1868 16.4976L14.1755 16.509L14.1642 16.5203L14.1528 16.5317L14.1414 16.543L14.1301 16.5544L14.1186 16.5658L14.1072 16.5772L14.0959 16.5886L14.0844 16.6L14.073 16.6115L14.0616 16.6229L14.0501 16.6343L14.0387 16.6458L14.0273 16.6572L14.0158 16.6686L14.0044 16.6801L13.9929 16.6916L13.9815 16.703L13.97 16.7145L13.9585 16.726L13.947 16.7374L13.9355 16.749L13.9241 16.7604L13.9125 16.7719L13.9011 16.7834L13.8895 16.7949L13.8781 16.8064L13.8665 16.818L13.855 16.8294L13.8435 16.841L13.832 16.8525L13.8204 16.864L13.8089 16.8756L13.7974 16.8871L13.7859 16.8986L13.7743 16.9102L13.7628 16.9217L13.7512 16.9332L13.7397 16.9448L13.7281 16.9564L13.7166 16.9679L13.705 16.9795L13.6935 16.991L13.6819 17.0026L13.6703 17.0142L13.6587 17.0257L13.6472 17.0373L13.6356 17.0488L13.624 17.0604L13.6125 17.072L13.6009 17.0836L13.5893 17.0952L13.5778 17.1067L13.5662 17.1183L13.5546 17.1298L13.543 17.1414L13.5315 17.153L13.5199 17.1646L13.5083 17.1762L13.4967 17.1878L13.4851 17.1993L13.4736 17.2109L13.462 17.2225L13.4504 17.2341L13.4388 17.2456L13.4272 17.2572L13.4157 17.2688L13.4041 17.2804L13.3925 17.292L13.3809 17.3035L13.3694 17.3151L13.3578 17.3267L13.3462 17.3382L13.3347 17.3498L13.3231 17.3614L13.3115 17.373L13.3 17.3845L13.2884 17.396L13.2769 17.4076L13.2652 17.4192L13.2537 17.4308L13.2422 17.4423L13.2307 17.4538L13.219 17.4654L13.2075 17.4769L13.196 17.4885L13.1845 17.5L13.1729 17.5116L13.1614 17.5231L13.1498 17.5346L13.1383 17.5461L13.1268 17.5576L13.1153 17.5692L13.1038 17.5807L13.0923 17.5922L13.0808 17.6037L13.0693 17.6152L13.0578 17.6267L13.0463 17.6382L13.0348 17.6496L13.0233 17.6612L13.0118 17.6726L13.0004 17.6841L12.9889 17.6956L12.9774 17.707L12.966 17.7184L12.9546 17.7299L12.9431 17.7414L12.9317 17.7528L12.9202 17.7642L12.9088 17.7756L12.8974 17.7871L12.886 17.7985L12.8746 17.8099L12.8632 17.8213L12.8518 17.8327L12.8404 17.8441L12.829 17.8554L12.8176 17.8668L12.8062 17.8782L12.7949 17.8896L12.7836 17.9009L12.7722 17.9122L12.7609 17.9236L12.7496 17.9349L12.7383 17.9462L12.7269 17.9576L12.7156 17.9688L12.7043 17.9802L12.6931 17.9914L12.6818 18.0027L12.6705 18.014L12.6593 18.0252L12.648 18.0365L12.6367 18.0477L12.6255 18.059L12.6142 18.0702L12.603 18.0814L12.5918 18.0926L12.5806 18.1038L12.5695 18.115L12.5583 18.1262L12.5471 18.1374L12.536 18.1485L12.5248 18.1596L12.5137 18.1708L12.5026 18.1819L12.4914 18.193L12.4803 18.2041L12.4692 18.2152L12.4582 18.2263L12.4471 18.2374L12.4361 18.2484L12.425 18.2595L12.414 18.2705L12.4029 18.2816L12.3919 18.2926L12.3809 18.3036L12.3699 18.3146L12.3589 18.3255L12.348 18.3365L12.337 18.3474L12.3261 18.3584L12.3152 18.3693L12.3042 18.3802L12.2933 18.3911L12.2824 18.402L12.2716 18.4129L12.2607 18.4238L12.2498 18.4346L12.2391 18.4454L12.2282 18.4562L12.2174 18.4671L12.2066 18.4779L12.1958 18.4886L12.185 18.4994L12.1743 18.5102L12.1636 18.5209L12.1528 18.5316L12.1421 18.5424L12.1315 18.553L12.1207 18.5637L12.11 18.5744L12.0995 18.585L12.0888 18.5957L12.0782 18.6063L12.0676 18.6169L12.057 18.6275L12.0464 18.638L12.0359 18.6486L12.0253 18.6592L12.0148 18.6697L12.0043 18.6802L11.9938 18.6907L11.9833 18.7012L11.9729 18.7116L11.9624 18.7221L11.952 18.7325L11.9416 18.7429L11.9312 18.7533L11.9208 18.7637L11.9104 18.774L11.9001 18.7844L11.8898 18.7947L11.8795 18.805L11.8692 18.8153L11.8589 18.8256L11.8487 18.8358L11.8384 18.846L11.8282 18.8563L11.818 18.8665L11.8078 18.8766L11.7977 18.8868L11.7875 18.897L11.7774 18.9071L11.7673 18.9172L11.7572 18.9272L11.7471 18.9373L11.7371 18.9474L11.7271 18.9574L11.717 18.9674L11.707 18.9774L11.6971 18.9874L11.6871 18.9973L11.6772 19.0072L11.6673 19.0172L11.6574 19.027L11.6476 19.0369L11.6377 19.0468L11.6279 19.0566L11.6181 19.0664L11.6083 19.0762L11.5985 19.0859L11.5888 19.0957L11.5791 19.1054L11.5694 19.1151L11.5597 19.1248L11.55 19.1344L11.5404 19.144L11.5308 19.1537L11.5212 19.1632L11.5116 19.1728L11.5021 19.1824L11.4926 19.1919L11.483 19.2014L11.4736 19.2109L11.4641 19.2203L11.4547 19.2298L11.4453 19.2392L11.4359 19.2486L11.4265 19.2579L11.4172 19.2672L11.4079 19.2766L11.3986 19.2858L11.3893 19.2952L11.3801 19.3044L11.3709 19.3136L11.3616 19.3228L11.3525 19.332L11.3433 19.3411L11.3342 19.3502L11.3251 19.3594L11.316 19.3684L11.307 19.3774L11.298 19.3865L11.289 19.3955L11.28 19.4044L11.2711 19.4134L11.2621 19.4223L11.2532 19.4312L11.2444 19.4401L11.2355 19.449L11.2267 19.4578L11.2179 19.4666L11.2091 19.4753L11.2004 19.484L11.1917 19.4928L11.183 19.5014L11.1743 19.5101L11.1657 19.5188L11.1571 19.5274L11.1485 19.536L11.14 19.5445L11.1315 19.553L11.1229 19.5615L11.1144 19.57L11.106 19.5784L11.0976 19.5868L11.0892 19.5952L11.0808 19.6036L11.0725 19.6119L11.0643 19.6202L11.056 19.6285L11.0477 19.6368L11.0395 19.645L11.0313 19.6532L11.0232 19.6613L11.015 19.6694L11.0069 19.6776L11 19.6845L10.9928 19.6774L10.9847 19.6693L10.9766 19.6612L10.9686 19.6531L10.9605 19.645L10.9523 19.6368L10.9441 19.6286L10.9359 19.6204L10.9277 19.6122L10.9194 19.604L10.9111 19.5956L10.9028 19.5873L10.8944 19.579L10.8861 19.5706L10.8777 19.5622L10.8692 19.5538L10.8607 19.5453L10.8522 19.5368L10.8437 19.5283L10.8352 19.5198L10.8266 19.5112L10.818 19.5026L10.8094 19.494L10.8008 19.4853L10.792 19.4766L10.7834 19.4679L10.7747 19.4592L10.7659 19.4504L10.7571 19.4417L10.7483 19.4329L10.7395 19.424L10.7307 19.4152L10.7218 19.4063L10.7129 19.3974L10.7039 19.3885L10.695 19.3795L10.686 19.3706L10.677 19.3616L10.668 19.3525L10.6589 19.3434L10.6498 19.3344L10.6407 19.3253L10.6316 19.3162L10.6225 19.307L10.6133 19.2978L10.6041 19.2886L10.5949 19.2794L10.5856 19.2702L10.5764 19.2609L10.567 19.2516L10.5578 19.2423L10.5485 19.233L10.539 19.2236L10.5297 19.2142L10.5203 19.2048L10.5108 19.1954L10.5014 19.186L10.4919 19.1765L10.4825 19.167L10.4729 19.1575L10.4634 19.148L10.4538 19.1384L10.4442 19.1288L10.4346 19.1192L10.425 19.1096L10.4154 19.1L10.4057 19.0903L10.396 19.0806L10.3863 19.0709L10.3766 19.0612L10.3669 19.0514L10.3571 19.0416L10.3473 19.0318L10.3374 19.022L10.3276 19.0122L10.3178 19.0024L10.3079 18.9925L10.2981 18.9826L10.2881 18.9727L10.2782 18.9628L10.2682 18.9528L10.2583 18.9428L10.2483 18.9328L10.2383 18.9228L10.2283 18.9128L10.2182 18.9028L10.2081 18.8927L10.198 18.8826L10.188 18.8725L10.1778 18.8624L10.1677 18.8522L10.1576 18.8421L10.1474 18.832L10.1372 18.8218L10.127 18.8115L10.1168 18.8013L10.1065 18.791L10.0963 18.7808L10.086 18.7705L10.0757 18.7602L10.0654 18.7499L10.0551 18.7396L10.0446 18.7292L10.0343 18.7188L10.0239 18.7085L10.0135 18.6981L10.0031 18.6877L9.99272 18.6772L9.98225 18.6668L9.97178 18.6563L9.96132 18.6458L9.95078 18.6354L9.94032 18.6248L9.92978 18.6143L9.91925 18.6038L9.90865 18.5932L9.89812 18.5826L9.88752 18.572L9.87692 18.5614L9.86632 18.5508L9.85565 18.5402L9.84498 18.5296L9.83438 18.5189L9.82365 18.5082L9.81298 18.4976L9.80232 18.4868L9.79158 18.4761L9.78085 18.4654L9.77012 18.4546L9.75932 18.4439L9.74858 18.4331L9.73778 18.4224L9.72698 18.4116L9.71618 18.4007L9.70532 18.3899L9.69452 18.379L9.68365 18.3682L9.67278 18.3574L9.66192 18.3465L9.65105 18.3356L9.64012 18.3247L9.62918 18.3138L9.61832 18.3028L9.60738 18.2919L9.59638 18.281L9.58545 18.27L9.57445 18.259L9.56352 18.248L9.55252 18.237L9.54152 18.226L9.53045 18.215L9.51945 18.204L9.50838 18.193L9.49738 18.1819L9.48632 18.1708L9.47525 18.1598L9.46412 18.1487L9.45305 18.1376L9.44192 18.1265L9.43085 18.1154L9.41972 18.1042L9.40858 18.0931L9.39745 18.082L9.38625 18.0708L9.37512 18.0597L9.36398 18.0485L9.35278 18.0373L9.34158 18.0262L9.33038 18.015L9.31918 18.0038L9.30798 17.9925L9.29672 17.9813L9.28552 17.97L9.27425 17.9588L9.26305 17.9476L9.25178 17.9363L9.24052 17.925L9.22925 17.9138L9.21792 17.9025L9.20665 17.8912L9.19538 17.8799L9.18405 17.8686L9.17272 17.8573L9.16145 17.846L9.15012 17.8346L9.13878 17.8233L9.12745 17.812L9.11612 17.8006L9.10472 17.7893L9.09338 17.7779L9.08198 17.7666L9.07065 17.7552L9.05925 17.7438L9.04785 17.7324L9.03652 17.721L9.02512 17.7096L9.01372 17.6982L9.00225 17.6868L8.99085 17.6754L8.97945 17.664L8.96805 17.6526L8.95658 17.6412L8.94518 17.6297L8.93372 17.6183L8.92232 17.6068L8.91085 17.5954L8.89938 17.584L8.88792 17.5725L8.87645 17.561L8.86505 17.5496L8.85352 17.5381L8.84205 17.5266L8.83058 17.5152L8.81912 17.5037L8.80765 17.4922L8.79618 17.4807L8.78465 17.4692L8.77318 17.4577L8.76165 17.4462L8.75018 17.4348L8.73865 17.4232L8.72718 17.4118L8.71565 17.4002L8.70418 17.3887L8.69265 17.3772L8.68112 17.3657L8.66965 17.3542L8.65812 17.3426L8.64658 17.3312L8.63505 17.3196L8.62352 17.3081L8.61205 17.2966L8.60052 17.285L8.58898 17.2735L8.57745 17.262L8.56592 17.2505L8.55438 17.239L8.54285 17.2274L8.53132 17.2159L8.51978 17.2044L8.50825 17.1928L8.49672 17.1813L8.48518 17.1698L8.47365 17.1582L8.46212 17.1467L8.45058 17.1352L8.43905 17.1236L8.42752 17.1121L8.41598 17.1006L8.40452 17.089L8.39298 17.0775L8.38145 17.066L8.36992 17.0544L8.35838 17.0429L8.34685 17.0314L8.33532 17.0199L8.32378 17.0084L8.31232 16.9968L8.30078 16.9853L8.28925 16.9738L8.27772 16.9623L8.26625 16.9508L8.25472 16.9393L8.24318 16.9278L8.23172 16.9162L8.22018 16.9048L8.20872 16.8932L8.19718 16.8818L8.18572 16.8702L8.17425 16.8588L8.16272 16.8473L8.15125 16.8358L8.13978 16.8243L8.12832 16.8128L8.11678 16.8014L8.10532 16.7899L8.09385 16.7784L8.08238 16.767L8.07098 16.7555L8.05952 16.744L8.04805 16.7326L8.03658 16.7212L8.02518 16.7097L8.01372 16.6983L8.00232 16.6868L7.99085 16.6754L7.97945 16.664L7.96805 16.6526L7.95665 16.6412L7.94525 16.6298L7.93385 16.6184L7.92245 16.607L7.91105 16.5956L7.89965 16.5842L7.88832 16.5728L7.87692 16.5615L7.86558 16.5501L7.85418 16.5388L7.84285 16.5274L7.83152 16.516L7.82018 16.5047L7.80885 16.4934L7.79752 16.482L7.78618 16.4708L7.77492 16.4594L7.76358 16.4482L7.75232 16.4368L7.74098 16.4256L7.72972 16.4143L7.71845 16.403L7.70718 16.3918L7.69592 16.3805L7.68472 16.3692L7.67345 16.358L7.66225 16.3468L7.65098 16.3356L7.63978 16.3244L7.62858 16.3132L7.61738 16.302L7.60618 16.2908L7.59505 16.2796L7.58385 16.2684L7.57272 16.2572L7.56158 16.2461L7.55038 16.235L7.53932 16.2238L7.52818 16.2127L7.51705 16.2016L7.50598 16.1905L7.49485 16.1794L7.48378 16.1684L7.47272 16.1573L7.46165 16.1462L7.45065 16.1352L7.43958 16.1242L7.42858 16.1131L7.41752 16.1021L7.40652 16.0911L7.39552 16.0801L7.38458 16.0691L7.37358 16.0582L7.36265 16.0472L7.35172 16.0362L7.34078 16.0253L7.32985 16.0144L7.31892 16.0035L7.30805 15.9926L7.29712 15.9817L7.28625 15.9708L7.27545 15.96L7.26458 15.9491L7.25372 15.9383L7.24292 15.9275L7.23212 15.9166L7.22132 15.9059L7.21052 15.8951L7.19978 15.8843L7.18898 15.8736L7.17825 15.8628L7.16752 15.8521L7.15685 15.8414L7.14612 15.8307L7.13545 15.82L7.12478 15.8093L7.11412 15.7987L7.10345 15.788L7.09285 15.7774L7.08225 15.7668L7.07165 15.7562L7.06105 15.7456L7.05052 15.735L7.03992 15.7245L7.02938 15.714L7.01885 15.7034L7.00838 15.6929L6.99789 15.6824L6.98741 15.672L6.97696 15.6615L6.96651 15.6511L6.95609 15.6406L6.94568 15.6302L6.93528 15.6198L6.92491 15.6094L6.91455 15.5991L6.9042 15.5888L6.89388 15.5784L6.88357 15.5681L6.87328 15.5578L6.863 15.5476L6.85274 15.5373L6.8425 15.527L6.83228 15.5168L6.82208 15.5066L6.81189 15.4964L6.80172 15.4863L6.79158 15.4761L6.78144 15.466L6.77133 15.4559L6.76123 15.4458L6.75116 15.4357L6.7411 15.4256L6.73106 15.4156L6.72104 15.4056L6.71104 15.3956L6.70105 15.3856L6.69109 15.3756L6.68114 15.3657L6.67122 15.3558L6.66132 15.3459L6.65143 15.336L6.64157 15.3261L6.63172 15.3163L6.6219 15.3064L6.6121 15.2966L6.60231 15.2868L6.59255 15.2771L6.5828 15.2674L6.57308 15.2576L6.56338 15.248L6.5537 15.2382L6.54404 15.2286L6.5344 15.219L6.52478 15.2094L6.51519 15.1998L6.50562 15.1902L6.49606 15.1806L6.48654 15.1711L6.47703 15.1616L6.46754 15.1521L6.45808 15.1426L6.44864 15.1332L6.43922 15.1238L6.42982 15.1144L6.42044 15.105L6.41109 15.0956L6.40176 15.0863L6.39246 15.077L6.38318 15.0677L6.37392 15.0585L6.36468 15.0492L6.35546 15.04L6.34628 15.0308L6.33711 15.0217L6.32797 15.0125L6.31886 15.0034L6.30976 14.9943L6.30069 14.9852L6.29164 14.9762L6.28262 14.9672L6.27363 14.9582L6.26466 14.9492L6.25571 14.9403L6.24679 14.9314L6.23789 14.9224L6.22902 14.9136L6.22018 14.9047L6.21136 14.8959L6.20256 14.8871L6.19379 14.8784L6.18504 14.8696L6.17633 14.8609L6.16764 14.8522L6.15897 14.8435L6.15033 14.8349L6.14172 14.8263L6.13313 14.8177L6.12457 14.8091L6.11604 14.8006L6.10753 14.7921L6.09905 14.7836L6.0906 14.7752L6.08217 14.7667L6.07377 14.7583L6.0654 14.75L6.05706 14.7416L6.04874 14.7333L6.04045 14.725L6.03219 14.7168L6.02396 14.7085L6.01576 14.7003L6.00758 14.6922L5.99943 14.684L5.99131 14.6759L5.98322 14.6678L5.97516 14.6597L5.96712 14.6517L5.95912 14.6437L5.95115 14.6357L5.9432 14.6278L5.93528 14.6198L5.9274 14.612L5.91954 14.6041L5.91171 14.5963L5.90392 14.5885L5.89615 14.5807L5.88841 14.573L5.8807 14.5652L5.87302 14.5576L5.86538 14.5499L5.85776 14.5423L5.85018 14.5347L5.84262 14.5272L5.8351 14.5196L5.8276 14.5122L5.82014 14.5047L5.81271 14.4972L5.80531 14.4898L5.79794 14.4825L5.7906 14.4752L5.7833 14.4678L5.77602 14.4606L5.76878 14.4534C2.8733 11.5578 2.8733 6.88651 5.76878 3.99101Z" stroke="#1F1A1A" stroke-width="2.43478"/>
<path d="M11 11.1367C12.0573 11.1367 12.9145 10.2796 12.9145 9.22221C12.9145 8.16484 12.0573 7.30768 11 7.30768C9.94261 7.30768 9.08545 8.16484 9.08545 9.22221C9.08545 10.2796 9.94261 11.1367 11 11.1367Z" fill="#1F1A1A"/>
</svg>
