<svg width="130" height="60" viewBox="0 0 130 60" fill="none" xmlns="http://www.w3.org/2000/svg">
<path d="M68.1995 19.933C65.5983 17.8466 62.1424 16.5373 57.7423 16.5373C48.4701 16.5373 40.9501 24.5623 40.9501 34.4562C40.9501 44.3618 48.4701 52.3829 57.7423 52.3829C62.1404 52.3829 65.5983 51.0755 68.1995 48.9891V51.736H77.2153V17.1686H68.1995V19.933V19.933ZM59.1002 44.0801C54.0552 44.0801 49.9678 39.7771 49.9678 34.4562C49.9678 29.1509 54.0552 24.8382 59.1002 24.8382C64.4386 24.8382 68.7629 29.1509 68.7629 34.4562C68.761 39.7771 64.4386 44.0801 59.1002 44.0801ZM113.224 51.736H122.24V24.0067H113.224V51.736ZM111.464 15.0764C111.464 18.5382 114.269 21.3414 117.733 21.3414C121.193 21.3414 124 18.5382 124 15.0764C124 10.282 120.101 6.9348 114.458 6.82213C107.903 6.69974 99.6315 10.2587 95.9288 21.2055V17.1686H86.9169V51.736H95.9288V31.6413C95.9288 18.6994 103.313 8.19169 114.401 8.30436C115.437 8.30825 116.453 8.50446 117.43 8.80557C114.108 8.97069 111.464 11.7079 111.464 15.0764ZM41.8651 17.1686H29.131L15.0158 30.5593V7.20871H6V51.7341H15.0158V39.1458L29.131 51.7341H41.7951L23.2371 34.4873L41.8651 17.1686Z" fill="#06038C"/>
<path d="M30.5788 4.1936L27.185 7.65151V4.1936H24.5003V14.7907H27.185V11.428L30.4584 14.7907H34.062L28.8907 9.49313L34.062 4.1936H30.5788Z" fill="#06038C"/>
<path d="M45.7546 6.67047H47.8158V12.3139H45.7546V14.7907H52.5636V12.3139H50.5025V6.67047H52.5636V4.1936H45.7546V6.67047Z" fill="#06038C"/>
<path d="M94.8063 9.34227C94.208 8.78279 93.3843 8.44671 92.3547 8.33986L90.548 8.16114C90.1711 8.1184 89.8836 8.02516 89.6932 7.87752C89.5378 7.75901 89.4679 7.61137 89.4679 7.39963C89.4679 7.25393 89.5029 7.03052 89.8117 6.78381C90.0643 6.58177 90.48 6.47881 91.0434 6.47881C91.5193 6.47881 91.9642 6.574 92.3624 6.76244C92.7354 6.93728 92.9802 7.16262 93.1123 7.45013L93.2114 7.66577H95.933L95.7757 7.18205C95.6474 6.78575 95.4532 6.39334 95.1968 6.01258C94.9384 5.62988 94.6081 5.28409 94.2177 4.98298C93.8252 4.68187 93.3629 4.44098 92.8403 4.2642C92.3197 4.08936 91.7253 4 91.0745 4C90.4353 4 89.8506 4.08353 89.3358 4.24672C88.8152 4.41378 88.3606 4.64884 87.9857 4.94801C87.603 5.253 87.3038 5.62405 87.0959 6.04755C86.8881 6.47298 86.7832 6.94699 86.7832 7.45596C86.7832 7.86197 86.8453 8.24662 86.9658 8.60018C87.092 8.9654 87.2941 9.29759 87.568 9.58316C87.84 9.86484 88.1838 10.098 88.5937 10.2747C88.992 10.4476 89.4737 10.5622 90.0274 10.6166L91.7175 10.7798C92.3605 10.8459 92.6655 10.9819 92.8092 11.0829C92.9744 11.2014 93.0482 11.3607 93.0482 11.5977C93.0482 11.757 93.0074 11.994 92.6538 12.2096C92.3333 12.4058 91.8904 12.5049 91.3406 12.5049C90.8297 12.5049 90.3751 12.4194 89.9885 12.2523C89.6272 12.0969 89.3611 11.8522 89.1707 11.5083L89.0658 11.316H86.3694L86.517 11.7958C86.655 12.2446 86.855 12.6661 87.1115 13.0488C87.3718 13.4412 87.704 13.7851 88.1003 14.0707C88.4946 14.3562 88.9667 14.5816 89.5048 14.7409C90.0371 14.8982 90.6549 14.9798 91.3406 14.9798C92.0419 14.9798 92.6713 14.8846 93.2133 14.7001C93.7592 14.5116 94.2235 14.261 94.5926 13.9502C94.9695 13.6355 95.257 13.2606 95.4493 12.839C95.6377 12.4214 95.7349 11.9784 95.7349 11.5219C95.7329 10.6536 95.4221 9.91729 94.8063 9.34227Z" fill="#06038C"/>
<path d="M72.7824 5.75355C72.289 5.27566 71.681 4.89295 70.9758 4.61321C70.2726 4.33542 69.4566 4.1936 68.5533 4.1936H64.769V14.7907H68.5533C69.4566 14.7907 70.2726 14.6509 70.9758 14.3711C71.681 14.0914 72.289 13.7087 72.7824 13.2308C73.2778 12.7509 73.6605 12.1798 73.915 11.5349C74.1676 10.8957 74.2977 10.208 74.2977 9.49119C74.2977 8.77436 74.1695 8.08666 73.915 7.44753C73.6586 6.80257 73.2778 6.23338 72.7824 5.75355ZM71.613 9.49313C71.613 9.90692 71.5392 10.2916 71.3973 10.6354C71.2555 10.9754 71.0496 11.2726 70.7874 11.5174C70.5232 11.7641 70.1948 11.9603 69.8141 12.1002C69.4275 12.242 68.9826 12.3158 68.495 12.3158H67.4557V6.67047H68.495C68.9826 6.67047 69.4275 6.74235 69.8141 6.88416C70.1968 7.02598 70.5232 7.22218 70.7874 7.4689C71.0496 7.71367 71.2536 8.0109 71.3973 8.35086C71.5392 8.69471 71.613 9.07935 71.613 9.49313Z" fill="#06038C"/>
<path d="M37.2467 10.3522C36.798 9.90349 36.798 9.17695 37.2467 8.72625L39.0942 6.8788C39.5429 6.43005 40.2695 6.43005 40.7182 6.8788L42.5676 8.72819C43.0164 9.17695 43.0164 9.90544 42.5676 10.3522L40.7182 12.1997C40.2695 12.6484 39.541 12.6484 39.0942 12.1997L37.2467 10.3522Z" fill="#E738BE"/>
<path d="M60.8648 9.49364C61.3796 9.18671 61.5544 8.52038 61.2552 7.99975C60.9541 7.47912 60.2917 7.29651 59.7672 7.58985C59.7594 6.98958 59.2699 6.50586 58.6676 6.50586C58.0654 6.50586 57.5778 6.98958 57.5681 7.58985C57.0436 7.29651 56.3812 7.47912 56.08 7.99975C55.7789 8.52038 55.9538 9.18671 56.4705 9.49364C55.9557 9.80058 55.7789 10.4669 56.08 10.9875C56.3812 11.5082 57.0436 11.6908 57.5681 11.3974C57.5759 11.9977 58.0654 12.4814 58.6676 12.4814C59.2699 12.4814 59.7575 11.9977 59.7672 11.3974C60.2917 11.6908 60.9541 11.5082 61.2552 10.9875C61.5544 10.465 61.3796 9.80058 60.8648 9.49364Z" fill="#3BD13D"/>
<path d="M80.3327 12.1641C79.1049 12.1641 77.069 10.6527 77.2963 8.374C77.3799 7.53283 78.0909 6.87622 78.9534 6.87622C79.4954 6.87622 80.0277 7.13459 80.3327 7.53478C80.6377 7.13459 81.17 6.87622 81.712 6.87622C82.5764 6.87622 83.2855 7.53283 83.369 8.374C83.5983 10.6527 81.5604 12.1641 80.3327 12.1641Z" fill="#FF5B00"/>
</svg>
